<svg xmlns="http://www.w3.org/2000/svg" xmlns:xlink="http://www.w3.org/1999/xlink" width="815" height="1320" version="1.1"><desc>title%20Virtual%20Funding%20a%20channel%20V%20with%20Ledger%20Channels%20L%2C%20L&apos;%0A%0Aparticipant%20%22Alice%22%20as%20A%0Aparticipant%20%22Irene%22%20as%20I%0Aparticipant%20%22Bob%22%20as%20B%0A%0Anote%20left%20of%20A%20%3A%20%3Cbackground%3A%23yellow%3EAlice%20proposes%20V%0AA-%3EI%3A%200a%3A%20V.preFS(A)%0AA-%3EB%3A%200b%3A%20V.preFS(A)%0Anote%20over%20A%2CB%3A%20End%20of%20Round%200%0A%0A%0Aparallel%0Anote%20left%20of%20A%20%3A%20%3Cbackground%3A%23yellow%3EIrene%20agrees%20to%20V%0AI-%3EA%3A%201a%3A%20V.preFS(I)%0AI-%3EB%3A%201b%3A%20V.preFS(I)%0Aparallel%20off%0A%0Aparallel%20%0Anote%20right%20of%20B%20%3A%20%3Cbackground%3A%23yellow%3EBob%20agrees%20to%20V%0AB-%3EA%3A%201c%3A%20V.preFS(B)%0Aparallel%20off%0AB-%3EI%3A%201d%3A%20V.preFS(B)%0A%0A%0Anote%20over%20A%2CB%3A%20End%20of%20Round%201%0A%0Aparallel%0Anote%20left%20of%20A%20%3A%20%3Cbackground%3A%23yellow%3EIrene%20votes%20to%20fund%20V%20with%20L%0AI-%3EA%3A%202a%3A%20L.fundV(I)%0Anote%20right%20of%20B%20%3A%20%3Cbackground%3A%23yellow%3EIrene%20votes%20to%20fund%20V%20with%20L&apos;%0AI-%3EB%3A%202b%3A%20L&apos;.fundV(I)%0Aparallel%20off%0A%0Aparallel%20%0Anote%20left%20of%20A%20%3A%20%3Cbackground%3A%23yellow%3EAlice%20votes%20to%20fund%20V%20with%20L%0AA-%3EI%3A%202c%3A%20L.fundV(A)%0AB-%3EI%3A%202d%3A%20L&apos;.fundV(B)%0Anote%20right%20of%20B%20%3A%20%3Cbackground%3A%23yellow%3EBob%20votes%20to%20fund%20V%20with%20L&apos;%0Aparallel%20off%0A%0Anote%20over%20A%2CB%3A%20End%20of%20Round%202%0A%0Aparallel%0Anote%20left%20of%20A%20%3A%20%3Cbackground%3A%23yellow%3EIrene%20votes%20to%20activate%20V%0AI-%3EA%3A%203a%3A%20V.postFund(I)%20%0AI-%3EB%3A%203b%3A%20V.postFund(I)%0Aparallel%20off%0A%0Anote%20left%20of%20A%20%3A%20%3Cbackground%3A%23yellow%3EAlice%20votes%20to%20activate%20V%0AA-%3EI%3A%203c%3A%20V.postFund(A)%0AA-%3EB%3A%203d%3A%20V.postFund(A)%0A%0Anote%20right%20of%20B%20%3A%20%3Cbackground%3A%23yellow%3EBob%20votes%20to%20activate%20V%0AB-%3EA%3A%203e%3A%20V.postFund(B)%0AB-%3EI%3A%203f%3A%20V.postFund(B)%0A%0Anote%20over%20A%2CB%3A%20End%20of%20Round%203%20-%20Funded!</desc><g><g><rect width="815" height="1320" x="0" y="0" fill="#fff" stroke="none"/></g><g><text x="140.073" y="26.388" fill="#000" stroke="none" dominant-baseline="alphabetic" font-family="sans-serif" font-size="22" font-style="normal" font-weight="normal" text-anchor="start" text-decoration="normal" xml:space="preserve">Virtual Funding a channel V with Ledger Channels L, L&apos;</text></g><g><path fill="none" stroke="#000" stroke-dasharray="13.532 5.864" stroke-miterlimit="10" stroke-width="1.466" d="M 244.50073195300783 103.26361593799999 L 244.50073195300783 1320.6132280179993" paint-order="fill stroke markers"/><path fill="none" stroke="#000" stroke-dasharray="13.532 5.864" stroke-miterlimit="10" stroke-width="1.466" d="M 408.2123169532682 103.26361593799999 L 408.2123169532682 1320.6132280179993" paint-order="fill stroke markers"/><path fill="none" stroke="#000" stroke-dasharray="13.532 5.864" stroke-miterlimit="10" stroke-width="1.466" d="M 568.6669286869271 103.26361593799999 L 568.6669286869271 1320.6132280179993" paint-order="fill stroke markers"/></g><g><path fill="none" stroke="none"/><g><path fill="#fff" stroke="#000" stroke-miterlimit="10" stroke-width="2.815" d="M 209.5260714142422 55.94178853199999 L 279.47539249177345 55.94178853199999 L 279.47539249177345 103.26361593799999 L 209.5260714142422 103.26361593799999 L 209.5260714142422 55.94178853199999 Z" paint-order="fill stroke markers"/></g><g><text x="228.613" y="85.672" fill="#000" stroke="none" dominant-baseline="alphabetic" font-family="sans-serif" font-size="11pt" font-style="normal" font-weight="normal" text-anchor="start" text-decoration="normal" xml:space="preserve">Alice</text></g><path fill="none" stroke="none"/><g><path fill="#fff" stroke="#000" stroke-miterlimit="10" stroke-width="2.815" d="M 372.4180381894049 55.94178853199999 L 444.00659571713146 55.94178853199999 L 444.00659571713146 103.26361593799999 L 372.4180381894049 103.26361593799999 L 372.4180381894049 55.94178853199999 Z" paint-order="fill stroke markers"/></g><g><text x="391.505" y="85.672" fill="#000" stroke="none" dominant-baseline="alphabetic" font-family="sans-serif" font-size="11pt" font-style="normal" font-weight="normal" text-anchor="start" text-decoration="normal" xml:space="preserve">Irene</text></g><path fill="none" stroke="none"/><g><path fill="#fff" stroke="#000" stroke-miterlimit="10" stroke-width="2.815" d="M 536.5376432091966 55.94178853199999 L 600.7962141646576 55.94178853199999 L 600.7962141646576 103.26361593799999 L 536.5376432091966 103.26361593799999 L 536.5376432091966 55.94178853199999 Z" paint-order="fill stroke markers"/></g><g><text x="555.625" y="85.672" fill="#000" stroke="none" dominant-baseline="alphabetic" font-family="sans-serif" font-size="11pt" font-style="normal" font-weight="normal" text-anchor="start" text-decoration="normal" xml:space="preserve">Bob</text></g></g><g><path fill="#fff" stroke="#000" stroke-miterlimit="10" stroke-width="1.466" d="M 244.50073195300783 158.677651748 L 235.70485325300783 158.677651748 M 76.44083719609375 138.447130738 L 219.87227159300784 138.447130738 L 235.70485325300783 154.279712398 L 235.70485325300783 178.90817275799998 L 76.44083719609375 178.90817275799998 L 76.44083719609375 138.447130738 M 219.87227159300784 138.447130738 L 219.87227159300784 154.279712398 L 235.70485325300783 154.279712398" paint-order="fill stroke markers"/><g><g><rect width="110.007" height="17.768" x="101.069" y="150.058" fill="#ff0" stroke="none"/><text x="101.069" y="163.076" fill="#000" stroke="none" dominant-baseline="alphabetic" font-family="sans-serif" font-size="11pt" font-style="normal" font-weight="normal" text-anchor="start" text-decoration="normal" xml:space="preserve">Alice proposes V</text></g><g><g><rect width="101.698" height="22.869" x="275.507" y="205.296" fill="#fff" stroke="none"/></g><text x="278.146" y="221.128" fill="#000" stroke="none" dominant-baseline="alphabetic" font-family="sans-serif" font-size="11pt" font-style="normal" font-weight="normal" text-anchor="start" text-decoration="normal" xml:space="preserve">0a: V.preFS(A)</text></g><g><path fill="none" stroke="#000" stroke-miterlimit="10" stroke-width="1.466" d="M 244.50073195300783 228.16509347799996 L 393.7284366939349 228.16509347799996" paint-order="fill stroke markers"/><g><path fill="#000" stroke="none" d="M 393.55251911993486 220.83519456133328 L 408.2123169532682 228.16509347799996 L 393.55251911993486 235.49499239466664 Z" paint-order="stroke fill markers" transform="translate(408.2123169532682,228.16509347799996) translate(-408.2123169532682,-228.16509347799996)"/></g></g><g><g><rect width="101.698" height="22.869" x="355.735" y="254.553" fill="#fff" stroke="none"/></g><text x="358.373" y="270.385" fill="#000" stroke="none" dominant-baseline="alphabetic" font-family="sans-serif" font-size="11pt" font-style="normal" font-weight="normal" text-anchor="start" text-decoration="normal" xml:space="preserve">0b: V.preFS(A)</text></g><g><path fill="none" stroke="#000" stroke-miterlimit="10" stroke-width="1.466" d="M 244.50073195300783 277.42201419799994 L 554.1830484275938 277.42201419799994" paint-order="fill stroke markers"/><g><path fill="#000" stroke="none" d="M 554.0071308535938 270.0921152813333 L 568.6669286869271 277.42201419799994 L 554.0071308535938 284.7519131146666 Z" paint-order="stroke fill markers" transform="translate(568.6669286869271,277.42201419799994) translate(-568.6669286869271,-277.42201419799994)"/></g></g><path fill="#fff" stroke="#000" stroke-miterlimit="10" stroke-width="1.466" d="M 228.66815029300784 303.80965029799995 L 568.6669286869271 303.80965029799995 L 584.4995103469271 319.64223195799997 L 584.4995103469271 344.27069231799993 L 228.66815029300784 344.27069231799993 L 228.66815029300784 303.80965029799995 M 568.6669286869271 303.80965029799995 L 568.6669286869271 319.64223195799997 L 584.4995103469271 319.64223195799997" paint-order="fill stroke markers"/><g><text x="355.643" y="328.438" fill="#000" stroke="none" dominant-baseline="alphabetic" font-family="sans-serif" font-size="11pt" font-style="normal" font-weight="normal" text-anchor="start" text-decoration="normal" xml:space="preserve">End of Round 0</text></g><path fill="#fff" stroke="#000" stroke-miterlimit="10" stroke-width="1.466" d="M 244.50073195300783 390.8888494279999 L 235.70485325300783 390.8888494279999 M 73.98556070683594 370.65832841799994 L 219.87227159300784 370.65832841799994 L 235.70485325300783 386.49091007799996 L 235.70485325300783 411.1193704379999 L 73.98556070683594 411.1193704379999 L 73.98556070683594 370.65832841799994 M 219.87227159300784 370.65832841799994 L 219.87227159300784 386.49091007799996 L 235.70485325300783 386.49091007799996" paint-order="fill stroke markers"/><g><g><rect width="112.462" height="17.768" x="98.614" y="382.269" fill="#ff0" stroke="none"/><text x="98.614" y="395.287" fill="#000" stroke="none" dominant-baseline="alphabetic" font-family="sans-serif" font-size="11pt" font-style="normal" font-weight="normal" text-anchor="start" text-decoration="normal" xml:space="preserve">Irene agrees to V</text></g><g><g><rect width="95.993" height="22.869" x="278.36" y="388.25" fill="#fff" stroke="none"/></g><text x="280.999" y="404.083" fill="#000" stroke="none" dominant-baseline="alphabetic" font-family="sans-serif" font-size="11pt" font-style="normal" font-weight="normal" text-anchor="start" text-decoration="normal" xml:space="preserve">1a: V.preFS(I)</text></g><g><path fill="none" stroke="#000" stroke-miterlimit="10" stroke-width="1.466" d="M 408.2123169532682 411.1193704379999 L 258.9846122123412 411.1193704379999" paint-order="fill stroke markers"/><g><path fill="#000" stroke="none" d="M 259.16052978634116 403.78947152133327 L 244.50073195300783 411.1193704379999 L 259.16052978634116 418.44926935466657 Z" paint-order="stroke fill markers" transform="translate(244.50073195300783,411.1193704379999) translate(-244.50073195300783,-411.1193704379999)"/></g></g><g><g><rect width="95.993" height="22.869" x="440.443" y="388.25" fill="#fff" stroke="none"/></g><text x="443.082" y="404.083" fill="#000" stroke="none" dominant-baseline="alphabetic" font-family="sans-serif" font-size="11pt" font-style="normal" font-weight="normal" text-anchor="start" text-decoration="normal" xml:space="preserve">1b: V.preFS(I)</text></g><g><path fill="none" stroke="#000" stroke-miterlimit="10" stroke-width="1.466" d="M 408.2123169532682 411.1193704379999 L 554.1830484275938 411.1193704379999" paint-order="fill stroke markers"/><g><path fill="#000" stroke="none" d="M 554.0071308535938 403.78947152133327 L 568.6669286869271 411.1193704379999 L 554.0071308535938 418.44926935466657 Z" paint-order="stroke fill markers" transform="translate(568.6669286869271,411.1193704379999) translate(-568.6669286869271,-411.1193704379999)"/></g></g><path fill="#fff" stroke="#000" stroke-miterlimit="10" stroke-width="1.466" d="M 568.6669286869271 457.7375275479999 L 577.4628073869271 457.7375275479999 M 577.4628073869271 437.5070065379999 L 716.0195317008335 437.5070065379999 L 731.8521133608334 453.33958819799994 L 731.8521133608334 477.9680485579999 L 577.4628073869271 477.9680485579999 L 577.4628073869271 437.5070065379999 M 716.0195317008335 437.5070065379999 L 716.0195317008335 453.33958819799994 L 731.8521133608334 453.33958819799994" paint-order="fill stroke markers"/><g><g><rect width="105.132" height="17.768" x="602.091" y="449.118" fill="#ff0" stroke="none"/><text x="602.091" y="462.135" fill="#000" stroke="none" dominant-baseline="alphabetic" font-family="sans-serif" font-size="11pt" font-style="normal" font-weight="normal" text-anchor="start" text-decoration="normal" xml:space="preserve">Bob agrees to V</text></g><g><g><rect width="100.875" height="22.869" x="356.146" y="455.099" fill="#fff" stroke="none"/></g><text x="358.785" y="470.931" fill="#000" stroke="none" dominant-baseline="alphabetic" font-family="sans-serif" font-size="11pt" font-style="normal" font-weight="normal" text-anchor="start" text-decoration="normal" xml:space="preserve">1c: V.preFS(B)</text></g><g><path fill="none" stroke="#000" stroke-miterlimit="10" stroke-width="1.466" d="M 568.6669286869271 477.9680485579999 L 258.9846122123412 477.9680485579999" paint-order="fill stroke markers"/><g><path fill="#000" stroke="none" d="M 259.16052978634116 470.63814964133326 L 244.50073195300783 477.9680485579999 L 259.16052978634116 485.29794747466656 Z" paint-order="stroke fill markers" transform="translate(244.50073195300783,477.9680485579999) translate(-244.50073195300783,-477.9680485579999)"/></g></g><g><g><rect width="101.698" height="22.869" x="437.59" y="504.356" fill="#fff" stroke="none"/></g><text x="440.229" y="520.188" fill="#000" stroke="none" dominant-baseline="alphabetic" font-family="sans-serif" font-size="11pt" font-style="normal" font-weight="normal" text-anchor="start" text-decoration="normal" xml:space="preserve">1d: V.preFS(B)</text></g><g><path fill="none" stroke="#000" stroke-miterlimit="10" stroke-width="1.466" d="M 568.6669286869271 527.2249692779999 L 422.69619721260153 527.2249692779999" paint-order="fill stroke markers"/><g><path fill="#000" stroke="none" d="M 422.87211478660157 519.8950703613332 L 408.2123169532682 527.2249692779999 L 422.87211478660157 534.5548681946666 Z" paint-order="stroke fill markers" transform="translate(408.2123169532682,527.2249692779999) translate(-408.2123169532682,-527.2249692779999)"/></g></g><path fill="#fff" stroke="#000" stroke-miterlimit="10" stroke-width="1.466" d="M 228.66815029300784 553.6126053779998 L 568.6669286869271 553.6126053779998 L 584.4995103469271 569.4451870379997 L 584.4995103469271 594.0736473979998 L 228.66815029300784 594.0736473979998 L 228.66815029300784 553.6126053779998 M 568.6669286869271 553.6126053779998 L 568.6669286869271 569.4451870379997 L 584.4995103469271 569.4451870379997" paint-order="fill stroke markers"/><g><text x="355.643" y="578.241" fill="#000" stroke="none" dominant-baseline="alphabetic" font-family="sans-serif" font-size="11pt" font-style="normal" font-weight="normal" text-anchor="start" text-decoration="normal" xml:space="preserve">End of Round 1</text></g><path fill="#fff" stroke="#000" stroke-miterlimit="10" stroke-width="1.466" d="M 244.50073195300783 640.6918045079998 L 235.70485325300783 640.6918045079998 M 8.7958787 620.4612834979997 L 219.87227159300784 620.4612834979997 L 235.70485325300783 636.2938651579997 L 235.70485325300783 660.9223255179998 L 8.7958787 660.9223255179998 L 8.7958787 620.4612834979997 M 219.87227159300784 620.4612834979997 L 219.87227159300784 636.2938651579997 L 235.70485325300783 636.2938651579997" paint-order="fill stroke markers"/><g><g><rect width="177.652" height="17.768" x="33.424" y="632.072" fill="#ff0" stroke="none"/><text x="33.424" y="645.09" fill="#000" stroke="none" dominant-baseline="alphabetic" font-family="sans-serif" font-size="11pt" font-style="normal" font-weight="normal" text-anchor="start" text-decoration="normal" xml:space="preserve">Irene votes to fund V with L</text></g><g><g><rect width="94.104" height="22.869" x="279.305" y="638.053" fill="#fff" stroke="none"/></g><text x="281.944" y="653.886" fill="#000" stroke="none" dominant-baseline="alphabetic" font-family="sans-serif" font-size="11pt" font-style="normal" font-weight="normal" text-anchor="start" text-decoration="normal" xml:space="preserve">2a: L.fundV(I)</text></g><g><path fill="none" stroke="#000" stroke-miterlimit="10" stroke-width="1.466" d="M 408.2123169532682 660.9223255179998 L 258.9846122123412 660.9223255179998" paint-order="fill stroke markers"/><g><path fill="#000" stroke="none" d="M 259.16052978634116 653.592426601333 L 244.50073195300783 660.9223255179998 L 259.16052978634116 668.2522244346665 Z" paint-order="stroke fill markers" transform="translate(244.50073195300783,660.9223255179998) translate(-244.50073195300783,-660.9223255179998)"/></g></g><path fill="#fff" stroke="#000" stroke-miterlimit="10" stroke-width="1.466" d="M 568.6669286869271 640.6918045079998 L 577.4628073869271 640.6918045079998 M 577.4628073869271 620.4612834979997 L 791.3380436637241 620.4612834979997 L 807.170625323724 636.2938651579997 L 807.170625323724 660.9223255179998 L 577.4628073869271 660.9223255179998 L 577.4628073869271 620.4612834979997 M 791.3380436637241 620.4612834979997 L 791.3380436637241 636.2938651579997 L 807.170625323724 636.2938651579997" paint-order="fill stroke markers"/><g><g><rect width="180.451" height="17.768" x="602.091" y="632.072" fill="#ff0" stroke="none"/><text x="602.091" y="645.09" fill="#000" stroke="none" dominant-baseline="alphabetic" font-family="sans-serif" font-size="11pt" font-style="normal" font-weight="normal" text-anchor="start" text-decoration="normal" xml:space="preserve">Irene votes to fund V with L&apos;</text></g><g><g><rect width="96.902" height="22.869" x="439.988" y="638.053" fill="#fff" stroke="none"/></g><text x="442.627" y="653.886" fill="#000" stroke="none" dominant-baseline="alphabetic" font-family="sans-serif" font-size="11pt" font-style="normal" font-weight="normal" text-anchor="start" text-decoration="normal" xml:space="preserve">2b: L&apos;.fundV(I)</text></g><g><path fill="none" stroke="#000" stroke-miterlimit="10" stroke-width="1.466" d="M 408.2123169532682 660.9223255179998 L 554.1830484275938 660.9223255179998" paint-order="fill stroke markers"/><g><path fill="#000" stroke="none" d="M 554.0071308535938 653.592426601333 L 568.6669286869271 660.9223255179998 L 554.0071308535938 668.2522244346665 Z" paint-order="stroke fill markers" transform="translate(568.6669286869271,660.9223255179998) translate(-568.6669286869271,-660.9223255179998)"/></g></g><path fill="#fff" stroke="#000" stroke-miterlimit="10" stroke-width="1.466" d="M 244.50073195300783 707.5404826279997 L 235.70485325300783 707.5404826279997 M 10.435115150195312 687.3099616179996 L 219.87227159300784 687.3099616179996 L 235.70485325300783 703.1425432779996 L 235.70485325300783 727.7710036379997 L 10.435115150195312 727.7710036379997 L 10.435115150195312 687.3099616179996 M 219.87227159300784 687.3099616179996 L 219.87227159300784 703.1425432779996 L 235.70485325300783 703.1425432779996" paint-order="fill stroke markers"/><g><g><rect width="176.013" height="17.768" x="35.064" y="698.921" fill="#ff0" stroke="none"/><text x="35.064" y="711.938" fill="#000" stroke="none" dominant-baseline="alphabetic" font-family="sans-serif" font-size="11pt" font-style="normal" font-weight="normal" text-anchor="start" text-decoration="normal" xml:space="preserve">Alice votes to fund V with L</text></g><g><g><rect width="98.985" height="22.869" x="276.864" y="704.902" fill="#fff" stroke="none"/></g><text x="279.503" y="720.734" fill="#000" stroke="none" dominant-baseline="alphabetic" font-family="sans-serif" font-size="11pt" font-style="normal" font-weight="normal" text-anchor="start" text-decoration="normal" xml:space="preserve">2c: L.fundV(A)</text></g><g><path fill="none" stroke="#000" stroke-miterlimit="10" stroke-width="1.466" d="M 244.50073195300783 727.7710036379997 L 393.7284366939349 727.7710036379997" paint-order="fill stroke markers"/><g><path fill="#000" stroke="none" d="M 393.55251911993486 720.441104721333 L 408.2123169532682 727.7710036379997 L 393.55251911993486 735.1009025546664 Z" paint-order="stroke fill markers" transform="translate(408.2123169532682,727.7710036379997) translate(-408.2123169532682,-727.7710036379997)"/></g></g><g><g><rect width="102.607" height="22.869" x="437.136" y="704.902" fill="#fff" stroke="none"/></g><text x="439.775" y="720.734" fill="#000" stroke="none" dominant-baseline="alphabetic" font-family="sans-serif" font-size="11pt" font-style="normal" font-weight="normal" text-anchor="start" text-decoration="normal" xml:space="preserve">2d: L&apos;.fundV(B)</text></g><g><path fill="none" stroke="#000" stroke-miterlimit="10" stroke-width="1.466" d="M 568.6669286869271 727.7710036379997 L 422.69619721260153 727.7710036379997" paint-order="fill stroke markers"/><g><path fill="#000" stroke="none" d="M 422.87211478660157 720.441104721333 L 408.2123169532682 727.7710036379997 L 422.87211478660157 735.1009025546664 Z" paint-order="stroke fill markers" transform="translate(408.2123169532682,727.7710036379997) translate(-408.2123169532682,-727.7710036379997)"/></g></g><path fill="#fff" stroke="#000" stroke-miterlimit="10" stroke-width="1.466" d="M 568.6669286869271 707.5404826279997 L 577.4628073869271 707.5404826279997 M 577.4628073869271 687.3099616179996 L 784.0080570914585 687.3099616179996 L 799.8406387514584 703.1425432779996 L 799.8406387514584 727.7710036379997 L 577.4628073869271 727.7710036379997 L 577.4628073869271 687.3099616179996 M 784.0080570914585 687.3099616179996 L 784.0080570914585 703.1425432779996 L 799.8406387514584 703.1425432779996" paint-order="fill stroke markers"/><g><g><rect width="173.121" height="17.768" x="602.091" y="698.921" fill="#ff0" stroke="none"/><text x="602.091" y="711.938" fill="#000" stroke="none" dominant-baseline="alphabetic" font-family="sans-serif" font-size="11pt" font-style="normal" font-weight="normal" text-anchor="start" text-decoration="normal" xml:space="preserve">Bob votes to fund V with L&apos;</text></g><path fill="#fff" stroke="#000" stroke-miterlimit="10" stroke-width="1.466" d="M 228.66815029300784 754.1586397379996 L 568.6669286869271 754.1586397379996 L 584.4995103469271 769.9912213979995 L 584.4995103469271 794.6196817579996 L 228.66815029300784 794.6196817579996 L 228.66815029300784 754.1586397379996 M 568.6669286869271 754.1586397379996 L 568.6669286869271 769.9912213979995 L 584.4995103469271 769.9912213979995" paint-order="fill stroke markers"/><g><text x="355.643" y="778.787" fill="#000" stroke="none" dominant-baseline="alphabetic" font-family="sans-serif" font-size="11pt" font-style="normal" font-weight="normal" text-anchor="start" text-decoration="normal" xml:space="preserve">End of Round 2</text></g><path fill="#fff" stroke="#000" stroke-miterlimit="10" stroke-width="1.466" d="M 244.50073195300783 841.2378388679996 L 235.70485325300783 841.2378388679996 M 29.17527323125 821.0073178579995 L 219.87227159300784 821.0073178579995 L 235.70485325300783 836.8398995179995 L 235.70485325300783 861.4683598779995 L 29.17527323125 861.4683598779995 L 29.17527323125 821.0073178579995 M 219.87227159300784 821.0073178579995 L 219.87227159300784 836.8398995179995 L 235.70485325300783 836.8398995179995" paint-order="fill stroke markers"/><g><g><rect width="157.273" height="17.768" x="53.804" y="832.618" fill="#ff0" stroke="none"/><text x="53.804" y="845.636" fill="#000" stroke="none" dominant-baseline="alphabetic" font-family="sans-serif" font-size="11pt" font-style="normal" font-weight="normal" text-anchor="start" text-decoration="normal" xml:space="preserve">Irene votes to activate V</text></g><g><g><rect width="121.269" height="22.869" x="265.722" y="838.599" fill="#fff" stroke="none"/></g><text x="268.361" y="854.432" fill="#000" stroke="none" dominant-baseline="alphabetic" font-family="sans-serif" font-size="11pt" font-style="normal" font-weight="normal" text-anchor="start" text-decoration="normal" xml:space="preserve">3a: V.postFund(I)</text></g><g><path fill="none" stroke="#000" stroke-miterlimit="10" stroke-width="1.466" d="M 408.2123169532682 861.4683598779995 L 258.9846122123412 861.4683598779995" paint-order="fill stroke markers"/><g><path fill="#000" stroke="none" d="M 259.16052978634116 854.1384609613328 L 244.50073195300783 861.4683598779995 L 259.16052978634116 868.7982587946663 Z" paint-order="stroke fill markers" transform="translate(244.50073195300783,861.4683598779995) translate(-244.50073195300783,-861.4683598779995)"/></g></g><g><g><rect width="117.196" height="22.869" x="429.842" y="838.599" fill="#fff" stroke="none"/></g><text x="432.48" y="854.432" fill="#000" stroke="none" dominant-baseline="alphabetic" font-family="sans-serif" font-size="11pt" font-style="normal" font-weight="normal" text-anchor="start" text-decoration="normal" xml:space="preserve">3b: V.postFund(I)</text></g><g><path fill="none" stroke="#000" stroke-miterlimit="10" stroke-width="1.466" d="M 408.2123169532682 861.4683598779995 L 554.1830484275938 861.4683598779995" paint-order="fill stroke markers"/><g><path fill="#000" stroke="none" d="M 554.0071308535938 854.1384609613328 L 568.6669286869271 861.4683598779995 L 554.0071308535938 868.7982587946663 Z" paint-order="stroke fill markers" transform="translate(568.6669286869271,861.4683598779995) translate(-568.6669286869271,-861.4683598779995)"/></g></g><path fill="#fff" stroke="#000" stroke-miterlimit="10" stroke-width="1.466" d="M 244.50073195300783 908.0865169879995 L 235.70485325300783 908.0865169879995 M 30.814509681445312 887.8559959779994 L 219.87227159300784 887.8559959779994 L 235.70485325300783 903.6885776379994 L 235.70485325300783 928.3170379979995 L 30.814509681445312 928.3170379979995 L 30.814509681445312 887.8559959779994 M 219.87227159300784 887.8559959779994 L 219.87227159300784 903.6885776379994 L 235.70485325300783 903.6885776379994" paint-order="fill stroke markers"/><g><g><rect width="155.633" height="17.768" x="55.443" y="899.467" fill="#ff0" stroke="none"/><text x="55.443" y="912.484" fill="#000" stroke="none" dominant-baseline="alphabetic" font-family="sans-serif" font-size="11pt" font-style="normal" font-weight="normal" text-anchor="start" text-decoration="normal" xml:space="preserve">Alice votes to activate V</text></g><g><g><rect width="122.078" height="22.869" x="265.318" y="954.705" fill="#fff" stroke="none"/></g><text x="267.956" y="970.537" fill="#000" stroke="none" dominant-baseline="alphabetic" font-family="sans-serif" font-size="11pt" font-style="normal" font-weight="normal" text-anchor="start" text-decoration="normal" xml:space="preserve">3c: V.postFund(A)</text></g><g><path fill="none" stroke="#000" stroke-miterlimit="10" stroke-width="1.466" d="M 244.50073195300783 977.5739587179995 L 393.7284366939349 977.5739587179995" paint-order="fill stroke markers"/><g><path fill="#000" stroke="none" d="M 393.55251911993486 970.2440598013328 L 408.2123169532682 977.5739587179995 L 393.55251911993486 984.9038576346662 Z" paint-order="stroke fill markers" transform="translate(408.2123169532682,977.5739587179995) translate(-408.2123169532682,-977.5739587179995)"/></g></g><g><g><rect width="122.901" height="22.869" x="345.133" y="1003.962" fill="#fff" stroke="none"/></g><text x="347.772" y="1019.794" fill="#000" stroke="none" dominant-baseline="alphabetic" font-family="sans-serif" font-size="11pt" font-style="normal" font-weight="normal" text-anchor="start" text-decoration="normal" xml:space="preserve">3d: V.postFund(A)</text></g><g><path fill="none" stroke="#000" stroke-miterlimit="10" stroke-width="1.466" d="M 244.50073195300783 1026.8308794379996 L 554.1830484275938 1026.8308794379996" paint-order="fill stroke markers"/><g><path fill="#000" stroke="none" d="M 554.0071308535938 1019.5009805213328 L 568.6669286869271 1026.8308794379996 L 554.0071308535938 1034.1607783546663 Z" paint-order="stroke fill markers" transform="translate(568.6669286869271,1026.8308794379996) translate(-568.6669286869271,-1026.8308794379996)"/></g></g><path fill="#fff" stroke="#000" stroke-miterlimit="10" stroke-width="1.466" d="M 568.6669286869271 1073.4490365479994 L 577.4628073869271 1073.4490365479994 M 577.4628073869271 1053.2185155379996 L 760.8298191764194 1053.2185155379996 L 776.6624008364194 1069.0510971979995 L 776.6624008364194 1093.6795575579995 L 577.4628073869271 1093.6795575579995 L 577.4628073869271 1053.2185155379996 M 760.8298191764194 1053.2185155379996 L 760.8298191764194 1069.0510971979995 L 776.6624008364194 1069.0510971979995" paint-order="fill stroke markers"/><g><g><rect width="149.943" height="17.768" x="602.091" y="1064.829" fill="#ff0" stroke="none"/><text x="602.091" y="1077.847" fill="#000" stroke="none" dominant-baseline="alphabetic" font-family="sans-serif" font-size="11pt" font-style="normal" font-weight="normal" text-anchor="start" text-decoration="normal" xml:space="preserve">Bob votes to activate V</text></g><g><g><rect width="122.901" height="22.869" x="345.133" y="1120.067" fill="#fff" stroke="none"/></g><text x="347.772" y="1135.9" fill="#000" stroke="none" dominant-baseline="alphabetic" font-family="sans-serif" font-size="11pt" font-style="normal" font-weight="normal" text-anchor="start" text-decoration="normal" xml:space="preserve">3e: V.postFund(B)</text></g><g><path fill="none" stroke="#000" stroke-miterlimit="10" stroke-width="1.466" d="M 568.6669286869271 1142.9364782779994 L 258.9846122123412 1142.9364782779994" paint-order="fill stroke markers"/><g><path fill="#000" stroke="none" d="M 259.16052978634116 1135.6065793613327 L 244.50073195300783 1142.9364782779994 L 259.16052978634116 1150.2663771946661 Z" paint-order="stroke fill markers" transform="translate(244.50073195300783,1142.9364782779994) translate(-244.50073195300783,-1142.9364782779994)"/></g></g><g><g><rect width="118.821" height="22.869" x="429.029" y="1169.324" fill="#fff" stroke="none"/></g><text x="431.668" y="1185.157" fill="#000" stroke="none" dominant-baseline="alphabetic" font-family="sans-serif" font-size="11pt" font-style="normal" font-weight="normal" text-anchor="start" text-decoration="normal" xml:space="preserve">3f: V.postFund(B)</text></g><g><path fill="none" stroke="#000" stroke-miterlimit="10" stroke-width="1.466" d="M 568.6669286869271 1192.1933989979993 L 422.69619721260153 1192.1933989979993" paint-order="fill stroke markers"/><g><path fill="#000" stroke="none" d="M 422.87211478660157 1184.8635000813326 L 408.2123169532682 1192.1933989979993 L 422.87211478660157 1199.523297914666 Z" paint-order="stroke fill markers" transform="translate(408.2123169532682,1192.1933989979993) translate(-408.2123169532682,-1192.1933989979993)"/></g></g><path fill="#fff" stroke="#000" stroke-miterlimit="10" stroke-width="1.466" d="M 228.66815029300784 1218.5810350979993 L 568.6669286869271 1218.5810350979993 L 584.4995103469271 1234.4136167579993 L 584.4995103469271 1259.0420771179993 L 228.66815029300784 1259.0420771179993 L 228.66815029300784 1218.5810350979993 M 568.6669286869271 1218.5810350979993 L 568.6669286869271 1234.4136167579993 L 584.4995103469271 1234.4136167579993" paint-order="fill stroke markers"/><g><text x="322.232" y="1243.209" fill="#000" stroke="none" dominant-baseline="alphabetic" font-family="sans-serif" font-size="11pt" font-style="normal" font-weight="normal" text-anchor="start" text-decoration="normal" xml:space="preserve">End of Round 3 - Funded!</text></g></g></g></g></g></g></g></g></g></g></g></g></g></svg>